<?xml version="1.0" encoding="utf-8"?><svg viewBox="0 0 19 18" xmlns="http://www.w3.org/2000/svg" xmlns:xlink="http://www.w3.org/1999/xlink"><style>:root>svg{display:none}:root>svg:target{display:block}</style><svg viewBox="0 0 18 18" id="insta" xmlns="http://www.w3.org/2000/svg"><g clip-path="url(#aclip0_304_6021)"><path d="M17.816 5.46c-.04-.904-.184-1.526-.392-2.065a4.158 4.158 0 00-.975-1.51 4.148 4.148 0 00-1.493-.98c-.537-.21-1.15-.356-2.046-.396-.903-.043-1.19-.053-3.48-.053s-2.577.01-3.476.05c-.897.04-1.513.186-2.047.396a4.112 4.112 0 00-1.496.984 4.195 4.195 0 00-.972 1.506c-.207.542-.352 1.16-.392 2.065-.043.911-.053 1.2-.053 3.511s.01 2.6.05 3.508c.04.905.184 1.527.392 2.065a4.2 4.2 0 00.975 1.51c.422.432.933.768 1.493.98.537.21 1.15.357 2.046.396.9.04 1.187.05 3.477.05s2.577-.01 3.476-.05c.896-.04 1.512-.186 2.046-.395a4.334 4.334 0 002.468-2.49c.208-.543.353-1.161.392-2.066.04-.907.05-1.197.05-3.508 0-2.31-.003-2.6-.043-3.508zm-1.519 6.95c-.036.831-.175 1.28-.29 1.58a2.811 2.811 0 01-1.601 1.615c-.297.117-.745.256-1.566.293-.89.04-1.156.05-3.407.05-2.25 0-2.52-.01-3.407-.05-.824-.037-1.269-.176-1.565-.293a2.594 2.594 0 01-.969-.635 2.65 2.65 0 01-.63-.977c-.115-.3-.253-.752-.29-1.58-.039-.898-.049-1.167-.049-3.438s.01-2.544.05-3.438c.036-.831.174-1.28.29-1.58.135-.369.349-.704.632-.977.274-.283.603-.499.97-.635.296-.117.744-.256 1.564-.293.89-.04 1.157-.05 3.407-.05 2.254 0 2.521.01 3.408.05.824.037 1.268.176 1.565.293.366.136.698.352.969.635.28.276.494.608.63.977.114.3.253.752.29 1.58.039.898.049 1.167.049 3.438s-.01 2.537-.05 3.435z"/><path d="M9.43 4.596c-2.393 0-4.334 1.958-4.334 4.372 0 2.414 1.941 4.373 4.334 4.373 2.392 0 4.333-1.959 4.333-4.373S11.822 4.596 9.43 4.596zm0 7.209c-1.552 0-2.811-1.27-2.811-2.837 0-1.566 1.259-2.836 2.81-2.836 1.553 0 2.811 1.27 2.811 2.836 0 1.566-1.258 2.837-2.81 2.837zM14.946 4.423c0 .564-.453 1.02-1.012 1.02a1.016 1.016 0 01-1.011-1.02c0-.564.453-1.02 1.011-1.02.56 0 1.012.456 1.012 1.02z"/></g><defs><clipPath id="aclip0_304_6021"><path transform="translate(.965 .456)" d="M0 0h16.868v17.021H0z"/></clipPath></defs></svg><svg viewBox="0 0 12 18" id="ok" xmlns="http://www.w3.org/2000/svg"><path d="M6.195 9.667c2.52 0 4.564-2.062 4.564-4.605 0-2.544-2.043-4.606-4.564-4.606-2.52 0-4.564 2.062-4.564 4.606.003 2.542 2.045 4.602 4.564 4.605zm0-7.085a2.469 2.469 0 012.458 2.48c0 1.37-1.1 2.48-2.458 2.48a2.469 2.469 0 01-2.458-2.48c0-1.37 1.1-2.48 2.458-2.48z"/><path d="M10.666 11.85c.496-.33.795-.889.795-1.488a1.287 1.287 0 00-.714-1.173c-.455-.23-1-.177-1.404.133a5.304 5.304 0 01-6.295 0 1.331 1.331 0 00-1.404-.133 1.288 1.288 0 00-.715 1.172c0 .6.3 1.158.795 1.488.636.427 1.329.761 2.058.992.123.039.25.075.382.108l-2.122 2.094a1.426 1.426 0 00-.03 2.004 1.395 1.395 0 002.02-.005l2.163-2.259 2.167 2.264c.54.562 1.429.576 1.986.031a1.426 1.426 0 00-.003-2.038l-2.119-2.092c.132-.034.26-.07.385-.108a8.043 8.043 0 002.055-.99z"/></svg><svg viewBox="0 0 19 11" id="vk" xmlns="http://www.w3.org/2000/svg"><path fill-rule="evenodd" clip-rule="evenodd" d="M15.848 6.947c.596.581 1.225 1.129 1.76 1.77.235.284.459.578.63.908.242.47.023.986-.398 1.015l-2.618-.002c-.675.056-1.213-.215-1.666-.677-.363-.37-.698-.762-1.047-1.144a2.474 2.474 0 00-.47-.418c-.358-.232-.668-.161-.872.212-.208.379-.256.798-.276 1.22-.028.617-.214.78-.834.807-1.323.063-2.578-.137-3.745-.805-1.028-.588-1.826-1.42-2.52-2.36C2.44 5.643 1.405 3.63.475 1.561.265 1.095.42.845.933.836a71.04 71.04 0 012.563 0c.347.004.577.203.71.531a15.885 15.885 0 001.737 3.219c.19.266.382.533.656.72.304.209.535.14.678-.198.09-.215.13-.446.15-.675.068-.79.077-1.58-.042-2.366-.072-.492-.35-.81-.84-.903-.25-.047-.212-.14-.091-.283.21-.246.408-.4.803-.4h2.958c.465.092.569.302.633.77l.002 3.286c-.005.181.09.72.418.84.261.085.433-.124.59-.29.709-.751 1.214-1.64 1.666-2.56.2-.404.372-.824.54-1.244.123-.311.317-.465.668-.458l2.847.003c.085 0 .17 0 .252.015.48.082.611.288.463.757-.234.735-.688 1.347-1.132 1.962-.475.657-.983 1.292-1.453 1.953-.433.603-.399.907.139 1.432z"/></svg><svg viewBox="0 0 19 14" id="yotube" xmlns="http://www.w3.org/2000/svg"><path d="M9.596.348s-5.858 0-7.328.385A2.434 2.434 0 00.613 2.416C.23 3.9.23 6.973.23 6.973s0 3.085.382 4.545c.22.807.856 1.45 1.655 1.671 1.482.397 7.328.397 7.328.397s5.87 0 7.34-.385a2.34 2.34 0 001.643-1.671c.394-1.472.394-4.545.394-4.545s.011-3.085-.394-4.57A2.325 2.325 0 0016.935.758c-1.47-.41-7.34-.41-7.34-.41zM7.732 4.134l4.874 2.839L7.732 9.8V4.134z"/></svg></svg>