<svg width="18" height="18" viewBox="0 0 18 18" fill="none" xmlns="http://www.w3.org/2000/svg">
<g clip-path="url(#clip0_304_6021)">
<path d="M17.8161 5.46038C17.7765 4.55597 17.6316 3.9342 17.424 3.39542C17.2098 2.82352 16.8803 2.31151 16.4486 1.88586C16.0268 1.4536 15.516 1.1177 14.9558 0.904948C14.4188 0.695438 13.8059 0.549184 12.9096 0.509309C12.0067 0.466056 11.72 0.456055 9.42992 0.456055C7.13979 0.456055 6.85314 0.466056 5.95354 0.505932C5.05729 0.545807 4.44112 0.692191 3.90734 0.901571C3.34047 1.1177 2.83307 1.45022 2.41127 1.88586C1.9829 2.31151 1.65016 2.8269 1.4392 3.39217C1.23158 3.9342 1.08664 4.55259 1.04713 5.45701C1.00427 6.36817 0.994354 6.65743 0.994354 8.9684C0.994354 11.2794 1.00427 11.5686 1.04378 12.4764C1.0833 13.3808 1.22836 14.0026 1.43598 14.5414C1.65016 15.1133 1.9829 15.6253 2.41127 16.0509C2.83307 16.4832 3.34382 16.8191 3.90399 17.0319C4.44112 17.2414 5.05394 17.3876 5.95033 17.4275C6.8498 17.4675 7.13658 17.4774 9.4267 17.4774C11.7168 17.4774 12.0035 17.4675 12.9031 17.4275C13.7993 17.3876 14.4155 17.2414 14.9493 17.0319C16.0829 16.5896 16.9791 15.6852 17.4174 14.5414C17.6249 13.9994 17.77 13.3808 17.8095 12.4764C17.849 11.5686 17.8589 11.2794 17.8589 8.9684C17.8589 6.65743 17.8556 6.36817 17.8161 5.46038ZM16.2971 12.4099C16.2608 13.2412 16.1224 13.6901 16.0071 13.9894C15.7236 14.7309 15.1404 15.3194 14.4056 15.6054C14.109 15.7218 13.661 15.8614 12.8404 15.8979C11.9507 15.9379 11.6839 15.9478 9.43326 15.9478C7.18266 15.9478 6.91248 15.9379 6.02601 15.8979C5.20223 15.8614 4.75738 15.7218 4.46082 15.6054C4.09513 15.469 3.76227 15.2529 3.4921 14.9703C3.21201 14.6943 2.99783 14.3617 2.86267 13.9927C2.74734 13.6935 2.60897 13.2412 2.5728 12.4133C2.53316 11.5155 2.52338 11.2461 2.52338 8.97502C2.52338 6.70393 2.53316 6.4313 2.5728 5.53689C2.60897 4.7056 2.74734 4.25671 2.86267 3.95745C2.99783 3.58831 3.21201 3.25255 3.49544 2.97978C3.76884 2.69714 4.09835 2.48101 4.46416 2.34476C4.76073 2.22838 5.20892 2.08875 6.02936 2.05212C6.91905 2.01224 7.186 2.00224 9.43648 2.00224C11.6904 2.00224 11.9573 2.01224 12.8437 2.05212C13.6675 2.08875 14.1124 2.22838 14.4089 2.34476C14.7746 2.48101 15.1075 2.69714 15.3777 2.97978C15.6577 3.25579 15.8719 3.58831 16.0071 3.95745C16.1224 4.25671 16.2608 4.70885 16.2971 5.53689C16.3366 6.43467 16.3465 6.70393 16.3465 8.97502C16.3465 11.2461 16.3366 11.5121 16.2971 12.4099Z" fill="white"/>
<path d="M9.42957 4.5957C7.03737 4.5957 5.09646 6.55416 5.09646 8.96826C5.09646 11.3824 7.03737 13.3408 9.42957 13.3408C11.8219 13.3408 13.7627 11.3824 13.7627 8.96826C13.7627 6.55416 11.8219 4.5957 9.42957 4.5957ZM9.42957 11.8046C7.87764 11.8046 6.61879 10.5344 6.61879 8.96826C6.61879 7.40206 7.87764 6.13189 9.42957 6.13189C10.9816 6.13189 12.2404 7.40206 12.2404 8.96826C12.2404 10.5344 10.9816 11.8046 9.42957 11.8046Z" fill="white"/>
<path d="M14.9461 4.42313C14.9461 4.98685 14.4931 5.44393 13.9343 5.44393C13.3757 5.44393 12.9228 4.98685 12.9228 4.42313C12.9228 3.85929 13.3757 3.40234 13.9343 3.40234C14.4931 3.40234 14.9461 3.85929 14.9461 4.42313Z" fill="white"/>
</g>
<defs>
<clipPath id="clip0_304_6021">
<rect width="16.8678" height="17.0214" fill="white" transform="translate(0.9645 0.456055)"/>
</clipPath>
</defs>
</svg>
