<svg width="12" height="18" viewBox="0 0 12 18" fill="none" xmlns="http://www.w3.org/2000/svg">
<path d="M6.195 9.66733C8.71567 9.66733 10.7591 7.60532 10.7591 5.06168C10.7591 2.51803 8.7157 0.456055 6.195 0.456055C3.6743 0.456055 1.63092 2.51807 1.63092 5.06171C1.63401 7.60403 3.67562 9.66421 6.195 9.66733ZM6.195 2.58174C7.55228 2.58174 8.6526 3.69204 8.6526 5.06171C8.6526 6.43138 7.55232 7.54168 6.195 7.54168C4.83768 7.54168 3.73739 6.43138 3.73739 5.06171C3.73739 3.69204 4.83772 2.58174 6.195 2.58174Z" fill="white"/>
<path d="M10.6657 11.8499C11.1617 11.5202 11.4606 10.9613 11.4613 10.3619C11.4682 9.86454 11.19 9.40778 10.7472 9.18927C10.2922 8.95992 9.74751 9.01157 9.34283 9.32249C7.46728 10.7023 4.92344 10.7023 3.04789 9.32249C2.64258 9.0132 2.09887 8.96162 1.64354 9.18927C1.20088 9.40775 0.922585 9.864 0.92874 10.3612C0.929794 10.9605 1.22856 11.5192 1.72431 11.8492C2.36034 12.276 3.05299 12.61 3.78168 12.8412C3.90527 12.8799 4.03281 12.9158 4.16437 12.9489L2.04243 15.0427C1.48578 15.5877 1.47232 16.4848 2.01241 17.0466C2.5525 17.6083 3.44154 17.6219 3.99822 17.0769C4.00981 17.0655 4.02119 17.054 4.03238 17.0422L6.19508 14.7833L8.36198 17.0465C8.90161 17.6086 9.79069 17.6229 10.3478 17.0784C10.9048 16.5338 10.919 15.6367 10.3794 15.0745C10.3681 15.0628 10.3566 15.0512 10.3449 15.0398L8.22644 12.9482C8.35797 12.9142 8.486 12.878 8.61052 12.8398C9.33842 12.6095 10.0304 12.2762 10.6657 11.8499Z" fill="white"/>
</svg>
