<svg width="19" height="11" viewBox="0 0 19 11" fill="none" xmlns="http://www.w3.org/2000/svg">
<path fill-rule="evenodd" clip-rule="evenodd" d="M15.8476 6.94652C16.4436 7.5284 17.0727 8.07586 17.6072 8.71642C17.8433 9.00107 18.0669 9.29481 18.2379 9.62516C18.4802 10.0948 18.2607 10.6115 17.8397 10.6396L15.2222 10.6384C14.5471 10.6944 14.0085 10.4226 13.5557 9.96105C13.1933 9.59192 12.8577 9.19906 12.5092 8.81748C12.3664 8.66152 12.2169 8.51476 12.0382 8.39877C11.6809 8.16683 11.3707 8.23785 11.1666 8.61051C10.9586 8.98956 10.9114 9.40928 10.891 9.83171C10.863 10.4481 10.6766 10.6101 10.0575 10.6383C8.73438 10.7007 7.47865 10.5005 6.31211 9.83307C5.28366 9.24464 4.48613 8.41394 3.79198 7.4735C2.44044 5.64226 1.40543 3.63004 0.4752 1.56144C0.265813 1.09538 0.418942 0.845201 0.933171 0.836346C1.78707 0.819758 2.64085 0.820939 3.49575 0.835166C3.8428 0.840242 4.07255 1.0393 4.20656 1.36716C4.66854 2.50312 5.23383 3.58387 5.9434 4.58565C6.13236 4.85236 6.32504 5.11906 6.59942 5.30678C6.90296 5.51464 7.13408 5.44575 7.27687 5.10761C7.36749 4.89321 7.40716 4.66227 7.42758 4.43264C7.49523 3.64261 7.50415 2.85394 7.38549 2.06669C7.31265 1.57537 7.03591 1.2573 6.54564 1.16433C6.29547 1.11693 6.33272 1.02383 6.45385 0.881034C6.66424 0.634752 6.86211 0.481445 7.25657 0.481445H10.2147C10.6804 0.573358 10.7839 0.782568 10.8476 1.25116L10.8501 4.53707C10.8451 4.71847 10.9408 5.25678 11.2675 5.37686C11.529 5.46233 11.7014 5.25312 11.8583 5.0873C12.5666 4.33559 13.0721 3.44722 13.5236 2.52732C13.7241 2.12283 13.8964 1.70276 14.0634 1.28304C14.1871 0.971589 14.3813 0.818341 14.7321 0.82513L17.5791 0.827668C17.6636 0.827668 17.749 0.828908 17.8307 0.842899C18.3105 0.924658 18.442 1.13103 18.2938 1.59951C18.0603 2.33452 17.6061 2.94704 17.1619 3.56239C16.6871 4.21936 16.1793 4.85383 15.7085 5.5147C15.2759 6.11818 15.3103 6.42237 15.8476 6.94652Z" fill="white"/>
</svg>
